# This file uses centimeters as units for non-parametric coordinates.

mtllib Rock9.mtl
g default
v -0.138532 0.610903 -1.300509
v -1.086949 0.566240 -1.292962
v 0.905572 0.599776 -1.295044
v -0.178833 1.576980 -1.172298
v 0.898871 1.574792 -1.161028
v -1.669650 -0.086871 -0.230370
v -1.629733 -0.107693 -0.847810
v -1.947257 1.148243 -1.008129
v -2.056764 1.209967 -0.250218
v -2.060641 0.460901 -0.268408
v -1.854623 0.448145 -0.997365
v -0.157052 -0.196699 -0.101620
v -1.001823 -0.195914 -0.181962
v -0.116073 -0.206257 -0.978914
v -1.000326 -0.174846 -0.943533
v 0.761582 -0.166766 -0.050293
v 0.789738 -0.180384 -0.916611
v 1.544396 -0.094904 -0.701913
v 1.833424 0.543162 -0.987293
v 2.065362 0.612798 -0.012933
v -1.238177 1.476081 -1.184687
v -1.305818 1.686216 -0.199733
v 1.883605 1.569665 -0.128472
v 1.896302 1.440634 -1.010006
v -0.225101 1.744401 -0.154281
v 0.887521 1.765679 -0.133434
v 0.748273 -0.078172 0.779060
v -0.192813 -0.139487 0.797296
v -1.129769 -0.167552 0.673404
v 1.505593 -0.022517 0.693479
v 1.536181 -0.063677 -0.028289
v 1.844856 0.626906 0.945910
v -2.056447 1.153571 0.439739
v -2.048435 0.454192 0.592322
v -1.721799 -0.082935 0.354158
v -1.396739 1.580404 0.852037
v 1.774517 1.542807 0.802307
v -0.283844 1.624044 0.898179
v 0.864796 1.653654 0.898227
v -1.429232 0.553351 1.305419
v -0.246645 0.657450 1.389822
v 0.868177 0.693541 1.351506
vt 0.771717 0.285667
vt 0.885637 0.282536
vt 0.881258 0.405810
vt 0.777943 0.417886
vt 0.773268 0.140109
vt 0.882030 0.156258
vt 0.794407 0.524907
vt 0.871896 0.493555
vt 0.637036 0.291286
vt 0.651103 0.438968
vt 0.637341 0.141043
vt 0.781161 0.010758
vt 0.870113 0.051051
vt 0.696806 0.537821
vt 0.656044 0.001992
vt 0.629240 0.291286
vt 0.487319 0.297736
vt 0.484412 0.142626
vt 0.627669 0.141043
vt 0.630967 0.438969
vt 0.493655 0.448398
vt 0.340596 0.305925
vt 0.340589 0.145794
vt 0.483721 0.003762
vt 0.606615 0.001992
vt 0.606353 0.537821
vt 0.500693 0.553087
vt 0.347028 0.461074
vt 0.353961 0.018970
vt 0.404507 0.553043
vt 0.108797 0.522688
vt 0.022720 0.517124
vt 0.009375 0.429378
vt 0.115545 0.429587
vt 0.103494 0.577196
vt 0.001870 0.548475
vt 0.004443 0.306105
vt 0.126746 0.311818
vt 0.234792 0.447424
vt 0.190286 0.529958
vt 0.223488 0.575495
vt 0.013128 0.179826
vt 0.133901 0.183751
vt 0.252063 0.316803
vt 0.322901 0.489172
vt 0.136969 0.075765
vt 0.043059 0.074620
vt 0.249521 0.185607
vt 0.334667 0.324308
vt 0.237590 0.080029
vt 0.003274 0.034326
vt 0.139110 0.001992
vt 0.329325 0.168891
vt 0.272781 0.032733
vt 0.717655 0.879366
vt 0.620055 0.877865
vt 0.621833 0.776242
vt 0.726260 0.773706
vt 0.620898 0.656248
vt 0.718398 0.677519
vt 0.634721 0.556835
vt 0.777902 0.620041
vt 0.471190 0.560001
vt 0.596306 0.556835
vt 0.614294 0.679729
vt 0.480898 0.695837
vt 0.610550 0.809489
vt 0.482864 0.829508
vt 0.793917 0.541569
vt 0.921603 0.551375
vt 0.937056 0.678199
vt 0.803207 0.677727
vt 0.932928 0.838330
vt 0.798175 0.833144
vt 0.926844 0.993478
vt 0.783663 0.998008
vn 0.004731 -0.140362 -0.990089
vn 0.008215 -0.837548 -0.546301
vn -0.121148 -0.831357 -0.542373
vn -0.147297 -0.171164 -0.974170
vn 0.143691 -0.180247 -0.973069
vn 0.133986 -0.851079 -0.507653
vn -0.022204 0.687932 -0.725435
vn 0.130261 0.676439 -0.724888
vn -0.274674 0.623095 -0.732330
vn -0.705597 -0.281392 -0.650347
vn -0.749792 0.341529 -0.566718
vn -0.493542 -0.762773 -0.417843
vn 0.646549 0.496960 -0.578796
vn 0.726552 -0.281264 -0.626907
vn 0.488196 -0.797482 -0.354523
vn -0.037294 0.998603 -0.037439
vn 0.077569 0.996329 -0.036207
vn -0.300209 0.952172 -0.056955
vn 0.728216 0.685272 -0.010211
vn -0.546066 -0.836444 -0.046612
vn -0.952804 -0.288474 -0.094592
vn -0.548197 -0.809908 0.208639
vn -0.887938 -0.279620 0.365211
vn -0.074296 -0.997183 0.010265
vn -0.184915 -0.902308 0.389419
vn -0.875829 0.472990 -0.095940
vn -0.864840 0.415403 0.281944
vn -0.411988 0.749631 0.517996
vn 0.017057 -0.999224 0.035503
vn 0.075264 -0.995679 0.054396
vn 0.019359 -0.883306 0.468398
vn 0.118582 -0.862686 0.491641
vn 0.519363 -0.853151 0.048945
vn 0.440575 -0.804845 0.397641
vn 0.970533 -0.239244 0.028777
vn 0.604828 0.618976 0.501051
vn 0.730708 -0.207401 0.650423
vn -0.042946 0.816620 0.575576
vn 0.121285 0.799286 0.588585
vn 0.157617 -0.113966 0.980902
vn -0.018444 -0.106757 0.994114
vn -0.398258 -0.185757 0.898268
s 1
g Rock9
usemtl lambert2SG
f 1/1/1 14/2/2 15/3/3 2/4/4
f 14/2/2 1/1/1 3/5/5 17/6/6
f 1/1/1 4/9/7 5/11/8 3/5/5
f 4/9/7 1/1/1 2/4/4 21/10/9
f 2/4/4 11/7/10 8/14/11 21/10/9
f 11/7/10 2/4/4 15/3/3 7/8/12
f 3/5/5 5/11/8 24/15/13 19/12/14
f 17/6/6 3/5/5 19/12/14 18/13/15
f 4/16/7 25/17/16 26/18/17 5/19/8
f 25/17/16 4/16/7 21/20/9 22/21/18
f 5/19/8 26/18/17 23/24/19 24/25/13
f 6/31/20 10/35/21 11/36/10 7/32/12
f 10/35/21 6/31/20 35/40/22 34/41/23
f 6/31/20 7/32/12 15/33/3 13/34/24
f 6/31/20 13/34/24 29/39/25 35/40/22
f 8/55/11 11/56/10 10/57/21 9/58/26
f 21/20/9 8/26/11 9/27/26 22/21/18
f 9/58/26 10/57/21 34/59/23 33/60/27
f 22/21/18 9/27/26 33/30/27 36/28/28
f 12/38/29 14/37/2 17/42/6 16/43/30
f 14/37/2 12/38/29 13/34/24 15/33/3
f 13/34/24 12/38/29 28/44/31 29/39/25
f 12/38/29 16/43/30 27/48/32 28/44/31
f 27/48/32 16/43/30 31/46/33 30/50/34
f 31/46/33 16/43/30 17/42/6 18/47/15
f 31/46/33 18/47/15 19/51/14 20/52/35
f 19/63/14 24/64/13 23/65/19 20/66/35
f 20/66/35 23/65/19 37/67/36 32/68/37
f 31/46/33 20/52/35 32/54/37 30/50/34
f 22/21/18 36/28/28 38/22/38 25/17/16
f 23/24/19 26/18/17 39/23/39 37/29/36
f 26/18/17 25/17/16 38/22/38 39/23/39
f 27/48/32 30/50/34 32/54/37 42/53/40
f 27/48/32 42/53/40 41/49/41 28/44/31
f 28/44/31 41/49/41 40/45/42 29/39/25
f 35/40/22 29/39/25 40/45/42 34/41/23
f 32/69/37 37/70/36 39/71/39 42/72/40
f 33/60/27 34/59/23 40/61/42 36/62/28
f 36/75/28 40/76/42 41/74/41 38/73/38
f 38/73/38 41/74/41 42/72/40 39/71/39
